HIERARCHY
ROOT Hips
{
	OFFSET 0.000000 100.481300 0.000000
	CHANNELS 6 Xposition Yposition Zposition Xrotation Yrotation Zrotation
	JOINT Spine
	{
		OFFSET -0.279200 12.230698 -2.892100
		CHANNELS 3 Xrotation Yrotation Zrotation
		JOINT Spine1
		{
			OFFSET -0.325700 14.269203 -3.374200
			CHANNELS 3 Xrotation Yrotation Zrotation
			JOINT Spine2
			{
				OFFSET -0.372300 16.307602 -0.352600
				CHANNELS 3 Xrotation Yrotation Zrotation
				JOINT Neck
				{
					OFFSET -0.418800 17.814194 8.416900
					CHANNELS 3 Xrotation Yrotation Zrotation
					JOINT Head
					{
						OFFSET 0.000000 7.031097 3.806800
						CHANNELS 3 Xrotation Yrotation Zrotation
						JOINT HeadTop_End
						{
							OFFSET 0.000000 24.646606 12.978600
							CHANNELS 3 Xrotation Yrotation Zrotation
							End Site
							{
								OFFSET 0.000000 27.854965 0.000000
							}
						}
					}
				}
				JOINT LeftShoulder
				{
					OFFSET 16.952999 14.495407 -7.737500
					CHANNELS 3 Xrotation Yrotation Zrotation
					JOINT LeftArm
					{
						OFFSET 9.308998 -2.777710 0.208600
						CHANNELS 3 Xrotation Yrotation Zrotation
						JOINT LeftForeArm
						{
							OFFSET 29.972298 0.000000 0.000000
							CHANNELS 3 Xrotation Yrotation Zrotation
							JOINT LeftHand
							{
								OFFSET 26.026505 0.000000 0.000000
								CHANNELS 3 Xrotation Yrotation Zrotation
								JOINT LeftHandThumb1
								{
									OFFSET 12.240501 -7.147949 9.207150
									CHANNELS 3 Xrotation Yrotation Zrotation
									JOINT LeftHandThumb2
									{
										OFFSET 4.138618 -2.389435 2.389433
										CHANNELS 3 Xrotation Yrotation Zrotation
										JOINT LeftHandThumb3
										{
											OFFSET 2.726913 -1.574387 1.574386
											CHANNELS 3 Xrotation Yrotation Zrotation
											JOINT LeftHandThumb4
											{
												OFFSET 3.941010 -2.275345 2.275342
												CHANNELS 3 Xrotation Yrotation Zrotation
												End Site
												{
													OFFSET -0.005798 5.087799 0.009903
												}
											}
										}
									}
								}
								JOINT LeftHandIndex1
								{
									OFFSET 24.424698 -1.985611 5.953459
									CHANNELS 3 Xrotation Yrotation Zrotation
									JOINT LeftHandIndex2
									{
										OFFSET 6.426697 0.000000 0.000000
										CHANNELS 3 Xrotation Yrotation Zrotation
										JOINT LeftHandIndex3
										{
											OFFSET 5.337898 0.000000 0.000000
											CHANNELS 3 Xrotation Yrotation Zrotation
											JOINT LeftHandIndex4
											{
												OFFSET 4.409401 0.000000 0.000000
												CHANNELS 3 Xrotation Yrotation Zrotation
												End Site
												{
													OFFSET 0.000000 4.409363 0.014373
												}
											}
										}
									}
								}
								JOINT LeftHandMiddle1
								{
									OFFSET 23.810104 0.000000 0.000000
									CHANNELS 3 Xrotation Yrotation Zrotation
									JOINT LeftHandMiddle2
									{
										OFFSET 7.176498 0.000000 0.000000
										CHANNELS 3 Xrotation Yrotation Zrotation
										JOINT LeftHandMiddle3
										{
											OFFSET 6.774902 0.000000 0.000000
											CHANNELS 3 Xrotation Yrotation Zrotation
											JOINT LeftHandMiddle4
											{
												OFFSET 5.403328 0.000000 0.000000
												CHANNELS 3 Xrotation Yrotation Zrotation
												End Site
												{
													OFFSET -0.027702 5.403244 0.017414
												}
											}
										}
									}
								}
								JOINT LeftHandRing1
								{
									OFFSET 22.908401 -0.839279 -6.020567
									CHANNELS 3 Xrotation Yrotation Zrotation
									JOINT LeftHandRing2
									{
										OFFSET 6.337502 0.000000 0.000000
										CHANNELS 3 Xrotation Yrotation Zrotation
										JOINT LeftHandRing3
										{
											OFFSET 5.779297 0.000000 0.000000
											CHANNELS 3 Xrotation Yrotation Zrotation
											JOINT LeftHandRing4
											{
												OFFSET 4.965698 0.000000 0.000000
												CHANNELS 3 Xrotation Yrotation Zrotation
												End Site
												{
													OFFSET 0.000000 4.965668 0.016186
												}
											}
										}
									}
								}
								JOINT LeftHandPinky1
								{
									OFFSET 20.037003 -1.530319 -10.950146
									CHANNELS 3 Xrotation Yrotation Zrotation
									JOINT LeftHandPinky2
									{
										OFFSET 5.254700 0.000000 0.000000
										CHANNELS 3 Xrotation Yrotation Zrotation
										JOINT LeftHandPinky3
										{
											OFFSET 4.810204 0.000000 0.000000
											CHANNELS 3 Xrotation Yrotation Zrotation
											JOINT LeftHandPinky4
											{
												OFFSET 3.647202 0.000000 0.000000
												CHANNELS 3 Xrotation Yrotation Zrotation
												End Site
												{
													OFFSET 0.000000 3.647186 0.011889
												}
											}
										}
									}
								}
							}
						}
					}
				}
				JOINT RightShoulder
				{
					OFFSET -15.141001 14.495407 -7.737500
					CHANNELS 3 Xrotation Yrotation Zrotation
					JOINT RightArm
					{
						OFFSET -9.308998 -2.777710 0.208500
						CHANNELS 3 Xrotation Yrotation Zrotation
						JOINT RightForeArm
						{
							OFFSET -29.972300 0.000000 0.000000
							CHANNELS 3 Xrotation Yrotation Zrotation
							JOINT RightHand
							{
								OFFSET -26.026505 0.000000 0.000000
								CHANNELS 3 Xrotation Yrotation Zrotation
								JOINT RightHandThumb1
								{
									OFFSET -12.240601 -7.148026 9.207092
									CHANNELS 3 Xrotation Yrotation Zrotation
									JOINT RightHandThumb2
									{
										OFFSET -4.138618 -2.389435 2.389433
										CHANNELS 3 Xrotation Yrotation Zrotation
										JOINT RightHandThumb3
										{
											OFFSET -2.726974 -1.574417 1.574421
											CHANNELS 3 Xrotation Yrotation Zrotation
											JOINT RightHandThumb4
											{
												OFFSET -3.941010 -2.275345 2.275343
												CHANNELS 3 Xrotation Yrotation Zrotation
												End Site
												{
													OFFSET 0.005814 5.087799 0.009927
												}
											}
										}
									}
								}
								JOINT RightHandIndex1
								{
									OFFSET -24.424698 -1.985657 5.953444
									CHANNELS 3 Xrotation Yrotation Zrotation
									JOINT RightHandIndex2
									{
										OFFSET -6.426697 0.000000 0.000000
										CHANNELS 3 Xrotation Yrotation Zrotation
										JOINT RightHandIndex3
										{
											OFFSET -5.337898 0.000000 0.000000
											CHANNELS 3 Xrotation Yrotation Zrotation
											JOINT RightHandIndex4
											{
												OFFSET -4.409401 0.000000 0.000000
												CHANNELS 3 Xrotation Yrotation Zrotation
												End Site
												{
													OFFSET 0.000000 4.409363 0.014408
												}
											}
										}
									}
								}
								JOINT RightHandMiddle1
								{
									OFFSET -23.810097 0.000000 0.000000
									CHANNELS 3 Xrotation Yrotation Zrotation
									JOINT RightHandMiddle2
									{
										OFFSET -7.176498 0.000000 0.000000
										CHANNELS 3 Xrotation Yrotation Zrotation
										JOINT RightHandMiddle3
										{
											OFFSET -6.774902 0.000000 0.000000
											CHANNELS 3 Xrotation Yrotation Zrotation
											JOINT RightHandMiddle4
											{
												OFFSET -5.403328 0.000000 0.000000
												CHANNELS 3 Xrotation Yrotation Zrotation
												End Site
												{
													OFFSET 0.027702 5.403244 0.017457
												}
											}
										}
									}
								}
								JOINT RightHandRing1
								{
									OFFSET -22.908302 -0.839325 -6.020576
									CHANNELS 3 Xrotation Yrotation Zrotation
									JOINT RightHandRing2
									{
										OFFSET -6.337502 0.000000 0.000000
										CHANNELS 3 Xrotation Yrotation Zrotation
										JOINT RightHandRing3
										{
											OFFSET -5.779297 0.000000 0.000000
											CHANNELS 3 Xrotation Yrotation Zrotation
											JOINT RightHandRing4
											{
												OFFSET -4.965698 0.000000 0.000000
												CHANNELS 3 Xrotation Yrotation Zrotation
												End Site
												{
													OFFSET 0.000000 4.965668 0.016226
												}
											}
										}
									}
								}
								JOINT RightHandPinky1
								{
									OFFSET -20.037003 -1.530334 -10.950259
									CHANNELS 3 Xrotation Yrotation Zrotation
									JOINT RightHandPinky2
									{
										OFFSET -5.254700 0.000000 0.000000
										CHANNELS 3 Xrotation Yrotation Zrotation
										JOINT RightHandPinky3
										{
											OFFSET -4.810204 0.000000 0.000000
											CHANNELS 3 Xrotation Yrotation Zrotation
											JOINT RightHandPinky4
											{
												OFFSET -3.647202 0.000000 0.000000
												CHANNELS 3 Xrotation Yrotation Zrotation
												End Site
												{
													OFFSET 0.000000 3.647186 0.011917
												}
											}
										}
									}
								}
							}
						}
					}
				}
			}
		}
	}
	JOINT LeftUpLeg
	{
		OFFSET 15.427100 -6.655098 0.678600
		CHANNELS 3 Xrotation Yrotation Zrotation
		JOINT LeftLeg
		{
			OFFSET 4.081073 -39.591068 13.024000
			CHANNELS 3 Xrotation Yrotation Zrotation
			JOINT LeftFoot
			{
				OFFSET -4.081074 -37.707932 -15.979700
				CHANNELS 3 Xrotation Yrotation Zrotation
				JOINT LeftToeBase
				{
					OFFSET 5.346399 -15.068900 20.645000
					CHANNELS 3 Xrotation Yrotation Zrotation
					JOINT LeftToe_End
					{
						OFFSET 2.754700 0.931300 11.300900
						CHANNELS 3 Xrotation Yrotation Zrotation
						End Site
						{
							OFFSET 0.000000 11.669021 0.000000
						}
					}
				}
			}
		}
	}
	JOINT RightUpLeg
	{
		OFFSET -15.569500 -6.655098 0.678600
		CHANNELS 3 Xrotation Yrotation Zrotation
		JOINT RightLeg
		{
			OFFSET -4.081825 -39.591045 13.023800
			CHANNELS 3 Xrotation Yrotation Zrotation
			JOINT RightFoot
			{
				OFFSET 4.081824 -37.707954 -15.979600
				CHANNELS 3 Xrotation Yrotation Zrotation
				JOINT RightToeBase
				{
					OFFSET -5.346400 -15.068900 20.645000
					CHANNELS 3 Xrotation Yrotation Zrotation
					JOINT RightToe_End
					{
						OFFSET -2.754700 0.931300 11.300900
						CHANNELS 3 Xrotation Yrotation Zrotation
						End Site
						{
							OFFSET 0.000000 11.669021 0.000000
						}
					}
				}
			}
		}
	}
}
MOTION
Frames: 4
Frame Time: 0.033333
-58.009796 55.686024 -37.453175 426.734619 27.249615 -53.941658 37.569131 4.479685 11.683056 6.472424 -0.127475 2.405103 6.204181 -0.165306 2.475633 2.377500 0.487250 -1.882845 16.176620 -2.083875 4.122204 -0.000002 -0.000001 -0.000002 -1.265608 -20.256319 -10.078280 -78.433794 -32.686833 -62.936560 0.000003 -41.028137 0.000002 27.474352 26.295065 26.074765 -8.255059 -22.448202 -10.239766 6.041687 13.124737 1.395150 -20.224064 -45.259186 6.128634 -0.000002 -0.000000 -0.000000 21.306533 -13.167264 50.937505 0.000000 -0.000001 -0.000001 0.000000 -0.001035 0.010111 -0.000000 -0.000002 0.000001 2.113179 -2.100217 51.304577 -0.000000 -0.000002 -0.000002 0.000001 -0.000738 0.007245 -0.000000 0.000000 0.000000 -7.178406 5.692254 50.868889 0.005646 0.257436 -2.512955 0.018026 -0.459719 4.490774 0.000000 -0.000000 0.000000 -21.732573 9.781078 49.452728 0.000000 0.000003 0.000000 0.000332 -0.062548 0.610367 -0.000000 0.000000 -0.000001 -10.339300 46.615932 25.082075 -47.609871 6.894301 24.715719 0.000012 56.997515 -0.000022 -22.854260 -8.220283 -37.891933 -13.953572 17.991350 -8.155602 6.417795 -14.934688 -2.153845 -10.969338 24.526303 -6.969850 0.000004 -0.000001 0.000005 21.264752 11.192129 -53.353849 -0.000001 0.000000 -0.000001 -0.000001 -0.001413 0.017385 0.000000 0.000000 -0.000001 1.653946 1.260814 -53.748470 0.000000 0.000004 -0.000001 0.000001 -0.001047 0.012882 -0.000001 -0.000005 -0.000000 -7.898674 -6.100320 -53.184033 0.005601 -0.228593 2.807179 0.014259 0.364569 -4.479802 -0.000000 0.000001 -0.000001 -22.150968 -9.361889 -51.522214 0.000000 -0.001023 0.012485 0.000250 0.048182 -0.591557 -0.000000 0.000001 -0.000000 147.383229 201.240705 -167.162910 68.755696 -7.446604 -9.218717 -14.601823 -2.645928 -23.905625 -83.570472 -19.417565 3.687947 0.000001 -0.000002 0.000000 -207.827248 151.087500 166.422600 83.284574 5.812824 -2.594998 3.187111 3.234275 9.053459 -9.045894 0.000004 -0.000001 0.000000 -0.000000 0.000001 
-56.202118 58.228188 -39.257210 421.200609 24.820612 -50.321391 42.447146 6.562760 5.643734 6.822376 1.172753 1.144317 6.991169 1.190529 1.045464 2.208414 0.261283 -1.924059 15.587407 -1.943963 5.791553 0.000003 0.000000 -0.000001 -3.006681 -26.271317 -9.561822 -78.073830 -34.794647 -57.706349 -0.000001 -41.971526 -0.000008 29.570341 28.096900 24.932373 -8.254964 -22.448363 -10.239960 6.041686 13.124732 1.395156 -20.245594 -45.341395 6.124961 0.000001 -0.000003 0.000001 21.301712 -13.167601 50.929155 -0.000000 0.000008 0.000002 0.000000 -0.001032 0.010167 0.000000 -0.000002 0.000000 2.112483 -2.099621 51.295892 0.000000 0.000000 -0.000000 0.000001 -0.000743 0.007286 -0.000000 -0.000001 -0.000000 -7.177525 5.693866 50.860437 0.005677 0.258133 -2.519763 0.018026 -0.459724 4.490821 0.000000 -0.000000 -0.000000 -21.727991 9.783636 49.444262 0.000002 -0.000003 -0.000002 0.000331 -0.062541 0.610408 -0.000000 -0.000001 -0.000001 -10.311621 47.824076 24.793838 -51.150098 8.163885 21.958085 0.000009 54.899114 0.000005 -26.169390 -5.815693 -37.407160 -13.953566 17.991336 -8.155622 6.417792 -14.934692 -2.153840 -10.969336 24.526311 -6.969843 0.000003 -0.000003 0.000005 21.264751 11.192111 -53.353859 0.000000 -0.000000 0.000003 -0.000001 -0.001410 0.017385 0.000000 0.000000 -0.000001 1.653949 1.260797 -53.748504 0.000001 -0.000002 0.000001 -0.000000 -0.001034 0.012887 -0.000000 -0.000004 -0.000000 -7.898674 -6.100331 -53.184050 0.005602 -0.228583 2.807181 0.014260 0.364563 -4.479805 0.000000 0.000001 -0.000000 -22.150969 -9.361895 -51.522224 0.000000 -0.001024 0.012486 0.000249 0.048189 -0.591561 -0.000000 0.000000 -0.000001 145.234752 203.476417 -169.097165 66.736426 -17.549321 -7.962001 -6.890975 -8.765666 -24.631284 -71.658595 -33.151252 20.918788 0.000001 0.000000 -0.000000 -206.429040 160.142541 171.521855 75.184304 9.646819 -3.049754 2.208378 10.521655 12.831753 -9.930526 -0.000009 0.000015 -0.000000 0.000000 -0.000000 
-53.677025 60.115540 -41.235470 415.427159 23.454654 -47.767649 47.177875 8.074596 -0.071817 7.564184 2.401061 -0.140983 7.864190 2.472450 -0.415095 2.028481 0.041830 -1.923640 15.074446 -1.868711 8.137517 -0.000001 0.000000 0.000001 -5.742430 -33.106784 -10.375137 -76.041261 -38.317484 -51.203784 -0.000005 -40.761032 0.000007 31.673076 29.173101 23.634285 -8.254109 -22.447989 -10.239697 6.041720 13.124984 1.395200 -20.230115 -45.286941 6.128630 0.000002 0.000000 -0.000003 21.272836 -13.167825 50.844116 -0.000000 -0.000001 0.000000 0.000001 -0.000935 0.009190 0.000000 0.000002 0.000001 2.106356 -2.094342 51.209876 0.000000 -0.000001 -0.000001 0.000000 -0.000679 0.006622 0.000000 0.000000 0.000001 -7.169303 5.710271 50.776641 0.005830 0.261560 -2.553244 0.018020 -0.459660 4.490196 0.000000 -0.000000 0.000000 -21.704629 9.800185 49.360838 -0.000000 -0.000000 -0.000000 0.000332 -0.062480 0.609697 0.000000 0.000001 -0.000000 -9.901044 48.821772 24.012625 -54.585151 9.665382 19.749330 -0.000005 51.298303 0.000028 -29.984670 -2.799162 -36.466858 -13.953552 17.991347 -8.155630 6.417794 -14.934688 -2.153854 -10.969349 24.526311 -6.969838 0.000004 0.000001 0.000004 21.264764 11.192125 -53.353849 0.000000 0.000000 -0.000000 -0.000001 -0.001410 0.017388 -0.000000 -0.000001 0.000000 1.653949 1.260803 -53.748500 -0.000001 0.000001 -0.000000 0.000001 -0.001048 0.012884 -0.000001 -0.000001 0.000000 -7.898666 -6.100321 -53.184030 0.005601 -0.228592 2.807179 0.014259 0.364555 -4.479804 0.000000 -0.000000 -0.000000 -22.150975 -9.361894 -51.522224 -0.000001 -0.001014 0.012488 0.000250 0.048187 -0.591563 0.000001 0.000000 -0.000000 144.396223 206.288529 -170.513665 70.523103 -16.951942 -4.300277 -2.835276 -12.047427 -25.273901 24.529707 -34.798304 -43.500232 -0.000001 0.000000 -0.000002 -200.547372 168.167536 175.026111 63.374853 9.356364 -1.032464 0.983932 14.745987 19.908898 -10.877262 -0.000008 0.000011 0.000000 0.000000 -0.000003 
-50.487419 60.875362 -42.994625 410.941719 21.012911 -46.584387 49.192962 9.612731 -5.174031 8.117220 3.549185 -1.480315 8.337751 3.657398 -1.927058 1.972960 -0.175373 -1.830283 15.184219 -1.863335 11.146880 -0.000000 -0.000003 -0.000002 -9.662006 -40.098859 -12.767297 -69.865561 -40.784166 -42.746739 0.000009 -40.410766 -0.000004 33.857005 30.240260 21.690476 -8.253922 -22.447837 -10.239541 6.041728 13.125050 1.395197 -20.219049 -45.245721 6.130744 -0.000002 -0.000001 -0.000003 21.267167 -13.167761 50.825432 -0.000000 0.000008 -0.000002 0.000000 -0.000920 0.008925 0.000000 -0.000003 -0.000000 2.105043 -2.093204 51.191079 -0.000000 -0.000002 -0.000003 -0.000001 -0.000659 0.006445 -0.000000 0.000001 -0.000000 -7.167520 5.713876 50.758319 0.005857 0.262190 -2.559392 0.018020 -0.459641 4.490017 0.000000 -0.000000 -0.000000 -21.700257 9.803511 49.342605 0.000001 0.000001 -0.000005 0.000331 -0.062452 0.609499 0.000001 -0.000001 0.000001 -9.623065 49.539632 23.583648 -56.670486 9.933751 18.305339 -0.000002 48.302142 0.000011 -33.646810 -0.050992 -35.537344 -13.953568 17.991352 -8.155624 6.417792 -14.934673 -2.153827 -10.969337 24.526328 -6.969845 -0.000000 0.000001 0.000005 21.264761 11.192132 -53.353855 -0.000001 0.000001 -0.000001 -0.000000 -0.001414 0.017386 0.000000 -0.000001 -0.000000 1.653943 1.260808 -53.748493 0.000000 0.000004 -0.000001 -0.000001 -0.001048 0.012885 0.000000 -0.000003 -0.000000 -7.898662 -6.100311 -53.184036 0.005602 -0.228596 2.807177 0.014260 0.364564 -4.479803 0.000000 -0.000001 -0.000000 -22.150980 -9.361890 -51.522221 -0.000001 -0.001014 0.012484 0.000251 0.048184 -0.591561 -0.000000 0.000001 -0.000000 143.112325 210.453660 -168.805694 77.375894 -7.649919 -1.450431 1.484697 -11.351488 -27.252207 25.334702 -36.994292 -50.942331 -0.000000 0.000002 -0.000000 -194.028380 174.427172 178.107810 50.775305 5.885332 2.371370 1.035011 13.682212 22.725757 -11.920164 -0.000002 0.000002 -0.000000 0.000000 0.000000 
